<svg xmlns="http://www.w3.org/2000/svg" viewBox="0 0 64 64" width="50px" height="50px"><path fill="#72caaf" d="M31 3A28 28 0 1 0 31 59A28 28 0 1 0 31 3Z"/><path fill="#f9e3ae" d="M31,3A28,28,0,1,0,59,31,28,28,0,0,0,31,3Zm0,50A22,22,0,1,1,46.17,15.07l.68.67q.39.4.75.82A22,22,0,0,1,31,53Z"/><path fill="#f6d397" d="M31,53A22,22,0,0,1,9,31H7.34a4,4,0,0,0-3.95,4.71,28,28,0,0,0,55.21,0A4,4,0,0,0,54.66,31H53A22,22,0,0,1,31,53Z"/><path fill="#f9e3ae" d="M30.93 18.27L34.18 26.24 43 27.04 36.34 32.87 38.39 41.24 30.93 36.62 23.46 41.24 25.51 32.87 18.85 27.04 27.67 26.24 30.93 18.27z"/><path fill="#f6d397" d="M30.93 18.27L34.18 26.24 43 27.04 36.34 32.87 38.39 41.24 30.93 36.62 30.93 18.27z"/><path fill="#8d6c9f" d="M43.09 26l-8.22-.75-3-7.41a1 1 0 0 0-1.85 0L27 25.3 18.76 26a1 1 0 0 0-.57 1.75l6.2 5.42L22.49 41A1 1 0 0 0 24 42.09l6.94-4.29 6.94 4.29A1 1 0 0 0 39.36 41l-1.9-7.78 6.2-5.42A1 1 0 0 0 43.09 26zm-7.41 6.07a1 1 0 0 0-.31 1l1.47 6-5.38-3.33a1 1 0 0 0-1.05 0L25 39.1l1.47-6a1 1 0 0 0-.31-1l-4.9-4.29 6.5-.59a1 1 0 0 0 .83-.62l2.33-5.7 2.33 5.7a1 1 0 0 0 .83.62l6.5.59zM38.35 11.32a21.2 21.2 0 0 1 2.1.92 1 1 0 1 0 .9-1.79 22.82 22.82 0 0 0-2.3-1 1 1 0 1 0-.7 1.87z"/><path fill="#8d6c9f" d="M31,2A29,29,0,1,0,60,31,29,29,0,0,0,31,2Zm0,56A27,27,0,1,1,58,31,27,27,0,0,1,31,58Z"/><path fill="#8d6c9f" d="M31 50a1 1 0 0 0-1 1v2a1 1 0 0 0 2 0V51A1 1 0 0 0 31 50zM37 50.08a1 1 0 0 0-1.93.52l.52 1.93A1 1 0 0 0 37.53 52zM21.75 47.52a1 1 0 0 0-1.37.37l-1 1.73a1 1 0 0 0 1.73 1l1-1.73A1 1 0 0 0 21.75 47.52zM41.62 47.89a1 1 0 0 0-1.73 1l1 1.73a1 1 0 0 0 1.73-1zM26.21 49.37a1 1 0 0 0-1.22.71L24.47 52a1 1 0 1 0 1.93.52l.52-1.93A1 1 0 0 0 26.21 49.37zM16.15 16.15a21.07 21.07 0 0 1 18.19-5.89 1 1 0 1 0 .32-2 23 23 0 0 0-19.92 39 1 1 0 0 0 1.41-1.41A21 21 0 0 1 16.15 16.15zM47.26 14.74a23.35 23.35 0 0 0-2.09-1.86 1 1 0 1 0-1.23 1.57 21.35 21.35 0 0 1 1.91 1.7 21 21 0 0 1 0 29.7 1 1 0 1 0 1.41 1.41A23 23 0 0 0 47.26 14.74z"/></svg>